HIERARCHY
ROOT Hips
{
	OFFSET 0.00 0.00 0.00
	CHANNELS 6 Xposition Yposition Zposition Xrotation Yrotation Zrotation
	JOINT LeftUpLeg
	{
		OFFSET 3.03384 0.00000 0.00000
		CHANNELS 3 Xrotation Yrotation Zrotation
		JOINT LeftLeg
		{
			OFFSET 0.00000 -16.85134 0.00000
			CHANNELS 3 Xrotation Yrotation Zrotation
			JOINT LeftFoot
			{
				OFFSET 0.00000 -15.49363 0.00000
				CHANNELS 3 Xrotation Yrotation Zrotation
				JOINT LeftToeBase
				{
					OFFSET 0.00000 -1.58004 5.89681
					CHANNELS 3 Xrotation Yrotation Zrotation
					End Site
					{
						OFFSET 0.00000 0.00000 2.95275
					}
				}
			}
		}
	}
	JOINT RightUpLeg
	{
		OFFSET -3.03384 0.00000 0.00000
		CHANNELS 3 Xrotation Yrotation Zrotation
		JOINT RightLeg
		{
			OFFSET 0.00000 -16.85134 0.00000
			CHANNELS 3 Xrotation Yrotation Zrotation
			JOINT RightFoot
			{
				OFFSET 0.00000 -15.49363 0.00000
				CHANNELS 3 Xrotation Yrotation Zrotation
				JOINT RightToeBase
				{
					OFFSET 0.00000 -1.58004 5.89681
					CHANNELS 3 Xrotation Yrotation Zrotation
					End Site
					{
						OFFSET 0.00000 0.00000 2.95275
					}
				}
			}
		}
	}
	JOINT Spine
	{
		OFFSET 0.00000 0.03937 0.00000
		CHANNELS 3 Xrotation Yrotation Zrotation
		JOINT Spine1
		{
			OFFSET 0.00000 8.04447 0.00000
			CHANNELS 3 Xrotation Yrotation Zrotation
			JOINT Neck
			{
				OFFSET 0.00000 6.91684 0.00000
				CHANNELS 3 Xrotation Yrotation Zrotation
				JOINT Head
				{
					OFFSET 0.00000 7.98743 0.00000
					CHANNELS 3 Xrotation Yrotation Zrotation
					End Site
					{
						OFFSET 0.00000 4.52755 0.00000
					}
				}
			}
			JOINT LeftShoulder
			{
				OFFSET 0.00000 6.91684 0.00000
				CHANNELS 3 Xrotation Yrotation Zrotation
				JOINT LeftArm
				{
					OFFSET 7.17853 -0.00003 0.00000
					CHANNELS 3 Xrotation Yrotation Zrotation
					JOINT LeftForeArm
					{
						OFFSET 10.68588 -0.00004 0.00000
						CHANNELS 3 Xrotation Yrotation Zrotation
						JOINT LeftHand
						{
							OFFSET 10.29742 -0.00004 0.00000
							CHANNELS 3 Xrotation Yrotation Zrotation
							JOINT LeftHandThumb
							{
								OFFSET 0.00000 0.00000 0.00000
								CHANNELS 0
								End Site
								{
									OFFSET 0.00000 0.00000 3.93700
								}
							}
							End Site
							{
								OFFSET 3.93700 -0.00001 0.00000
							}
						}
					}
				}
			}
			JOINT RightShoulder
			{
				OFFSET 0.00000 6.91684 0.00000
				CHANNELS 3 Xrotation Yrotation Zrotation
				JOINT RightArm
				{
					OFFSET -7.17853 -0.00003 0.00000
					CHANNELS 3 Xrotation Yrotation Zrotation
					JOINT RightForeArm
					{
						OFFSET -10.68588 -0.00004 0.00000
						CHANNELS 3 Xrotation Yrotation Zrotation
						JOINT RightHand
						{
							OFFSET -10.29742 -0.00004 0.00000
							CHANNELS 3 Xrotation Yrotation Zrotation
							JOINT RightHandThumb
							{
								OFFSET 0.00000 0.00000 0.00000
								CHANNELS 0
								End Site
								{
									OFFSET 0.00000 0.00000 3.93700
								}
							}
							End Site
							{
								OFFSET -5.39369 -0.00002 0.00000
							}
						}
					}
				}
			}
		}
	}
}
MOTION
Frames: 7
Frame Time: 0.008333
 -1.2859 34.0674 0.9885 144.3895 87.3812 -145.4529 5.8238 7.6383 8.0916 -8.3009 -0.0000 -0.0000 2.3217 5.8974 -24.5478 -3.9497 0.0000 0.0000 6.3448 -10.2679 -4.9932 -3.5041 -0.0000 -0.0000 -9.7607 -4.2011 9.0248 10.1602 0.0000 0.0000 -8.2363 0.7237 1.4937 4.5744 -1.4520 -2.2457 13.2901 13.0851 1.5966 -11.0178 -7.2761 -0.8122 10.7476 3.9037 26.0107 -25.8072 13.0303 -23.1272 -0.0001 -18.6217 -0.0000 -12.0717 31.7365 8.5294 19.0945 -6.5749 -19.7795 -43.6421 -18.2676 17.7245 -0.0000 3.0046 0.0000 -20.6720 -10.8911 21.6149
 -1.2801 34.0660 0.9859 144.6629 87.3808 -145.7098 5.8503 7.6301 8.0711 -8.3108 0.0000 -0.0000 2.3227 5.8959 -24.5441 -3.9499 0.0000 0.0000 6.3629 -10.2742 -5.0126 -3.5027 0.0000 -0.0000 -9.7732 -4.2099 9.0383 10.1625 0.0000 -0.0000 -8.2357 0.6982 1.5292 4.5721 -1.4270 -2.3384 13.2523 13.2293 1.6544 -11.0136 -7.4575 -0.7834 10.7433 3.9083 26.0541 -25.7823 13.0250 -23.1187 -0.0001 -18.6326 -0.0000 -12.0522 31.7278 8.5042 19.1103 -6.5694 -19.7312 -43.6686 -18.2732 17.7479 -0.0000 3.0142 0.0000 -20.6887 -10.9032 21.6120
 -1.2747 34.0646 0.9852 144.9716 87.3716 -146.0088 5.8691 7.6151 8.0613 -8.3168 0.0000 -0.0000 2.3176 5.8985 -24.5446 -3.9344 0.0000 0.0000 6.3807 -10.2832 -5.0219 -3.5059 -0.0000 0.0000 -9.7805 -4.2219 9.0606 10.1574 0.0000 -0.0000 -8.2344 0.6835 1.5246 4.5672 -1.4182 -2.3443 13.2369 13.2939 1.6674 -11.0391 -7.5558 -0.7287 10.7326 3.9078 26.0658 -25.7462 13.0241 -23.1277 -0.0001 -18.6629 -0.0000 -12.0302 31.7036 8.4706 19.1050 -6.5649 -19.7116 -43.6994 -18.2790 17.7513 -0.0000 3.0179 0.0000 -20.6332 -10.9021 21.6294
 -1.2691 34.0638 0.9840 145.3374 87.3546 -146.3635 5.8819 7.6015 8.0493 -8.3196 0.0000 0.0000 2.3125 5.8959 -24.5261 -3.9340 0.0000 -0.0000 6.4009 -10.2889 -5.0320 -3.5135 0.0000 -0.0000 -9.7943 -4.2441 9.1017 10.1395 -0.0000 0.0000 -8.2375 0.6692 1.5153 4.5684 -1.4120 -2.3358 13.2203 13.3462 1.6712 -11.0613 -7.6499 -0.6828 10.7348 3.9114 26.0588 -25.7360 13.0120 -23.1318 -0.0001 -18.6891 -0.0000 -12.0106 31.6946 8.4232 19.0913 -6.5664 -19.7031 -43.6836 -18.2795 17.7710 -0.0000 3.0258 0.0000 -20.6371 -10.9149 21.6402
 -1.2638 34.0630 0.9875 145.6871 87.3286 -146.7258 5.8846 7.5644 8.0745 -8.3201 -0.0000 -0.0000 2.3078 5.9029 -24.5434 -3.9341 -0.0000 -0.0000 6.3820 -10.5270 -4.9532 -3.5054 -0.0000 0.0000 -9.7969 -4.1679 8.9403 10.1174 -0.0000 -0.0000 -8.2391 0.6547 1.5082 4.5565 -1.4083 -2.3144 13.2019 13.3866 1.6833 -11.0676 -7.7238 -0.6329 10.7423 3.9146 26.0644 -25.7255 12.9980 -23.1464 -0.0001 -18.7237 -0.0000 -11.9884 31.7178 8.4333 19.0897 -6.5717 -19.6865 -43.6683 -18.2763 17.7949 -0.0000 3.0170 0.0000 -20.6457 -10.8870 21.6473
 -1.2579 34.0627 0.9876 146.2160 87.3020 -147.2546 5.8958 7.5392 8.0762 -8.3201 -0.0000 -0.0000 2.3046 5.9045 -24.5437 -3.9327 -0.0000 -0.0000 6.4067 -10.5607 -4.9479 -3.5125 -0.0000 0.0000 -9.8046 -4.1702 8.9419 10.1223 0.0000 -0.0000 -8.2433 0.6480 1.5077 4.5564 -1.3973 -2.2972 13.1896 13.4193 1.6925 -11.0822 -7.8126 -0.6156 10.7505 3.8892 26.0564 -25.7208 12.9912 -23.1554 -0.0001 -18.7596 -0.0000 -11.9800 31.7537 8.3953 19.0825 -6.5930 -19.6875 -43.6593 -18.2965 17.8207 -0.0000 3.0167 0.0000 -20.6376 -10.8892 21.6542
 -1.2522 34.0622 0.9861 146.6705 87.2751 -147.6939 5.9056 7.5118 8.0622 -8.3174 0.0000 0.0000 2.2987 5.9067 -24.5413 -3.9295 -0.0000 0.0000 6.4280 -10.5687 -4.9655 -3.5222 0.0000 -0.0000 -9.8138 -4.1727 8.9434 10.1193 0.0000 -0.0000 -8.2470 0.6435 1.5046 4.5530 -1.3919 -2.2946 13.1699 13.4301 1.7015 -11.0797 -7.8778 -0.5891 10.7583 3.8845 26.0501 -25.7388 12.9735 -23.1728 -0.0001 -18.7876 -0.0000 -11.9734 31.7696 8.3511 19.0662 -6.6089 -19.6801 -43.6264 -18.3007 17.8456 -0.0000 3.0116 0.0000 -20.6285 -10.8731 21.6826
